<?xml version="1.0" standalone="no"?>
<!DOCTYPE svg PUBLIC "-//W3C//DTD SVG 20010904//EN"
 "http://www.w3.org/TR/2001/REC-SVG-20010904/DTD/svg10.dtd">
<svg version="1.0" xmlns="http://www.w3.org/2000/svg"
 width="1280.000000pt" height="988.000000pt" viewBox="0 0 1280.000000 988.000000"
 preserveAspectRatio="xMidYMid meet">
<g transform="translate(0.000000,988.000000) scale(0.100000,-0.100000)"
fill="#000000" stroke="none">
<path d="M10588 9855 c-150 -53 -270 -132 -477 -319 -332 -298 -825 -904
-1356 -1666 -203 -292 -546 -813 -542 -824 2 -6 9 -11 15 -11 6 0 86 106 178
235 720 1015 1363 1771 1769 2080 180 137 347 191 425 138 107 -73 164 -246
190 -577 44 -576 -73 -1701 -315 -3019 -50 -268 -53 -309 -29 -319 24 -9 39
16 73 121 105 316 267 1088 370 1756 182 1182 186 1984 11 2287 -35 62 -79 99
-146 124 -62 24 -83 23 -166 -6z"/>
<path d="M2089 9806 c-164 -58 -248 -308 -265 -789 -24 -658 168 -2046 426
-3077 83 -334 129 -454 161 -423 19 19 13 74 -35 333 -229 1233 -353 2389
-317 2955 23 355 81 554 182 626 28 19 46 24 99 24 56 0 77 -6 150 -41 383
-184 1069 -953 1932 -2162 175 -246 218 -297 218 -259 0 24 -414 645 -679
1017 -910 1280 -1564 1906 -1872 1796z"/>
<path d="M4080 4804 c-383 -74 -883 -406 -1454 -964 -251 -245 -646 -674 -646
-700 0 -36 83 30 615 490 614 532 860 719 1127 860 209 110 362 148 542 135
301 -22 490 -107 697 -314 327 -328 600 -957 840 -1937 55 -225 58 -245 52
-321 -5 -76 -4 -85 20 -126 34 -58 94 -88 187 -95 l68 -5 47 -68 c57 -83 124
-152 171 -174 40 -19 41 -23 20 -200 -60 -503 -180 -834 -361 -993 -55 -48
-215 -129 -330 -165 -240 -78 -578 -137 -950 -167 -77 -6 -144 -15 -149 -20
-32 -32 269 -50 502 -31 81 7 201 17 267 22 285 24 518 79 681 162 183 93 286
269 360 615 2 12 9 22 14 22 5 0 12 -10 14 -22 74 -346 177 -522 360 -615 163
-83 396 -138 681 -162 66 -5 186 -15 267 -22 233 -19 534 -1 502 31 -5 5 -72
14 -149 20 -372 30 -710 89 -950 167 -115 36 -275 117 -330 165 -181 159 -301
490 -361 993 -21 177 -20 181 20 200 47 22 114 91 171 174 47 69 47 69 104 76
78 9 152 45 187 90 27 36 29 44 30 144 1 93 9 134 57 327 248 986 512 1590
836 1915 207 207 396 292 697 314 180 13 333 -25 542 -135 267 -141 513 -328
1127 -860 532 -460 615 -526 615 -490 0 26 -395 455 -646 700 -525 513 -981
829 -1359 941 -71 21 -99 24 -255 23 -193 0 -254 -12 -404 -74 -486 -203 -898
-814 -1116 -1655 -70 -273 -112 -522 -129 -768 -5 -77 -12 -141 -14 -144 -3
-2 -36 14 -73 36 -132 80 -257 113 -424 113 -167 0 -292 -33 -424 -113 -37
-22 -70 -38 -73 -36 -2 3 -9 67 -14 144 -17 246 -59 495 -129 768 -77 298
-161 526 -285 770 -260 515 -592 832 -983 937 -59 16 -114 21 -232 23 -85 2
-166 1 -180 -1z"/>
<path d="M4091 4385 c-170 -52 -310 -148 -394 -271 -60 -88 -89 -169 -95 -267
-15 -238 130 -408 503 -592 127 -62 221 -89 392 -109 141 -18 532 -32 585 -22
24 4 62 29 117 77 71 61 81 74 81 103 0 18 -16 151 -35 295 -26 198 -39 274
-56 309 -29 61 -182 213 -278 276 -111 74 -252 142 -375 182 -98 33 -125 37
-236 40 -112 4 -134 2 -209 -21z"/>
<path d="M8381 4399 c-137 -27 -345 -118 -492 -215 -96 -63 -249 -215 -278
-276 -17 -35 -30 -111 -56 -309 -19 -144 -35 -277 -35 -295 0 -29 10 -42 81
-103 55 -48 93 -73 117 -77 53 -10 444 4 585 22 171 20 265 47 392 109 373
184 518 354 503 592 -16 246 -207 455 -492 537 -94 28 -230 34 -325 15z"/>
<path d="M2290 2373 c-309 -16 -493 -30 -830 -64 -535 -53 -796 -89 -1105
-150 -184 -37 -185 -37 -185 -55 0 -18 -11 -19 212 20 409 73 878 135 1188
158 110 8 361 13 675 13 536 0 613 -5 945 -61 571 -95 1163 -291 1737 -574
117 -58 181 -85 188 -79 15 15 -6 28 -255 153 -720 363 -1411 585 -1980 636
-103 9 -445 11 -590 3z"/>
<path d="M9900 2369 c-458 -45 -1035 -212 -1605 -464 -140 -61 -567 -275 -600
-299 -13 -10 -17 -18 -10 -25 7 -7 67 18 185 77 566 282 1169 481 1740 576
332 56 409 61 945 61 314 0 565 -5 675 -13 310 -23 779 -85 1188 -158 106 -19
198 -34 203 -34 19 0 8 30 -13 35 -13 2 -52 11 -88 19 -329 73 -1081 168
-1683 211 -259 19 -807 27 -937 14z"/>
<path d="M2585 1763 c-268 -21 -453 -44 -670 -85 -499 -93 -1035 -263 -1500
-475 -180 -82 -237 -113 -243 -132 -7 -22 37 -9 208 59 758 302 1775 538 2449
569 198 9 564 0 746 -19 437 -44 952 -154 1334 -285 85 -29 101 -30 101 -11 0
15 -150 67 -385 135 -601 172 -1160 252 -1730 249 -148 -1 -288 -3 -310 -5z
m-226 -67 c-2 -2 -107 -23 -234 -46 -282 -51 -524 -104 -803 -176 -118 -31
-216 -53 -218 -51 -8 7 123 53 277 96 320 91 762 177 918 180 35 0 62 -1 60
-3z"/>
<path d="M9495 1760 c-569 -51 -1074 -154 -1582 -322 -79 -26 -123 -45 -123
-54 0 -19 16 -18 101 11 382 131 897 241 1334 285 182 19 548 28 746 19 674
-31 1691 -267 2449 -569 171 -68 215 -81 208 -59 -6 19 -63 50 -243 132 -612
280 -1283 466 -1953 543 -161 18 -782 27 -937 14z m1177 -80 c241 -35 523 -96
767 -166 140 -40 264 -84 257 -91 -2 -2 -100 20 -218 51 -279 72 -521 125
-803 176 -126 23 -232 44 -234 46 -11 10 110 2 231 -16z"/>
<path d="M3190 1379 c-133 -13 -340 -48 -473 -80 -338 -83 -1088 -360 -1722
-636 -415 -181 -985 -454 -985 -472 0 -23 44 -8 291 95 662 276 1124 462 1594
641 830 316 1016 364 1520 389 336 16 838 -49 1201 -157 170 -51 198 -57 192
-38 -6 18 -159 79 -306 123 -246 72 -480 116 -726 136 -147 11 -460 11 -586
-1z m-941 -273 c-16 -16 -919 -360 -926 -353 -11 12 414 183 717 288 182 63
220 75 209 65z"/>
<path d="M9005 1379 c-136 -11 -347 -44 -480 -75 -242 -56 -523 -153 -533
-183 -6 -19 22 -13 192 38 363 108 865 173 1201 157 504 -25 690 -73 1520
-389 470 -179 932 -365 1594 -641 140 -58 262 -106 272 -106 50 0 -1 31 -233
145 -730 355 -1488 667 -2164 888 -278 92 -513 142 -779 167 -126 11 -443 11
-590 -1z m1726 -328 c281 -96 758 -286 746 -298 -7 -7 -910 337 -926 353 -9 8
11 2 180 -55z"/>
</g>
</svg>
